{"accessors":[{"bufferView":2,"componentType":5126,"count":439,"max":[0.830303430557251,1.0000001192092896,0.5699102878570557],"min":[-0.830303430557251,-1.0000001192092896,-0.9586403965950012],"type":"VEC3"},{"bufferView":2,"byteOffset":5268,"componentType":5126,"count":439,"max":[0.9917944073677063,0.9999097585678101,1],"min":[-0.9917944073677063,-0.9943421483039856,-0.9961056113243103],"type":"VEC3"},{"bufferView":1,"componentType":5126,"count":439,"max":[1.0093523263931274,1.0002104043960571],"min":[-0.009352240711450577,0],"type":"VEC2"},{"bufferView":0,"componentType":5125,"count":2064,"max":[438],"min":[0],"type":"SCALAR"},{"bufferView":2,"byteOffset":10536,"componentType":5126,"count":17,"max":[0.05126553028821945,-0.6166195869445801,0.48702573776245117],"min":[-0.05126553773880005,-0.6204472780227661,0.3328220546245575],"type":"VEC3"},{"bufferView":2,"byteOffset":10740,"componentType":5126,"count":17,"max":[0.7027444243431091,1,0.7668286561965942],"min":[-0.7027444243431091,0.6418520212173462,-0.7668286561965942],"type":"VEC3"},{"bufferView":1,"byteOffset":3512,"componentType":5126,"count":17,"max":[0.5833333730697632,0],"min":[0.4166666865348816,0],"type":"VEC2"},{"bufferView":0,"byteOffset":8256,"componentType":5125,"count":72,"max":[16],"min":[0],"type":"SCALAR"},{"bufferView":2,"byteOffset":10944,"componentType":5126,"count":6947,"max":[0.7862918376922607,4.664261341094971,3.8559398651123047],"min":[-0.7862919569015503,-0.2374187558889389,-0.3066708743572235],"type":"VEC3"},{"bufferView":2,"byteOffset":94308,"componentType":5126,"count":6947,"max":[1,1,1],"min":[-1,-1,-1],"type":"VEC3"},{"bufferView":1,"byteOffset":3648,"componentType":5126,"count":6947,"max":[1.0000003576278687,1.0000003576278687],"min":[0,0],"type":"VEC2"},{"bufferView":0,"byteOffset":8544,"componentType":5125,"count":35136,"max":[6946],"min":[0],"type":"SCALAR"}],"asset":{"extras":{"author":"Hummmy (https://sketchfab.com/Hummmy)","license":"CC-BY-4.0 (http://creativecommons.org/licenses/by/4.0/)","source":"https://sketchfab.com/3d-models/sink-2f1f4a8825b54acd8d1030cb0d7ed056","title":"Sink"},"generator":"Sketchfab-7.58.0","version":"2.0"},"bufferViews":[{"buffer":0,"byteLength":149088,"byteOffset":0,"name":"floatBufferViews","target":34963},{"buffer":0,"byteLength":59224,"byteOffset":149088,"byteStride":8,"name":"floatBufferViews","target":34962},{"buffer":0,"byteLength":177672,"byteOffset":208312,"byteStride":12,"name":"floatBufferViews","target":34962}],"buffers":[{"byteLength":385984,"uri":"data:application/octet-stream;base64,"}],"materials":[{"doubleSided":true,"emissiveFactor":[0,0,0],"name":"SInk","pbrMetallicRoughness":{"baseColorFactor":[0.7158558932,0.7158558932,0.7158558932,1],"metallicFactor":0,"roughnessFactor":0.43730945121951215}},{"doubleSided":true,"emissiveFactor":[0,0,0],"name":"Hole","pbrMetallicRoughness":{"baseColorFactor":[0.195989,0.195989,0.195989,1],"metallicFactor":0.5200076219512195,"roughnessFactor":0.9380228364}},{"doubleSided":true,"emissiveFactor":[0,0,0],"name":"Steel","pbrMetallicRoughness":{"baseColorFactor":[1,1,1,1],"metallicFactor":1,"roughnessFactor":0.29706554878048785}}],"meshes":[{"name":"Plane_SInk_0","primitives":[{"attributes":{"NORMAL":1,"POSITION":0,"TEXCOORD_0":2},"indices":3,"material":0,"mode":4}]},{"name":"Plane_Hole_0","primitives":[{"attributes":{"NORMAL":5,"POSITION":4,"TEXCOORD_0":6},"indices":7,"material":1,"mode":4}]},{"name":"Plane.001_Steel_0","primitives":[{"attributes":{"NORMAL":9,"POSITION":8,"TEXCOORD_0":10},"indices":11,"material":2,"mode":4}]}],"nodes":[{"children":[1],"name":"RootNode (gltf orientation matrix)","rotation":[-0.7071067811865475,0,0,0.7071067811865476]},{"children":[2],"name":"RootNode (model correction matrix)"},{"children":[3],"matrix":[1,0,0,0,0,0,1,0,0,-1,0,0,0,0,0,1],"name":"395ff507e50443a89d68e8659c05c4a2.fbx"},{"children":[4,7,9,12],"name":"RootNode"},{"children":[5],"matrix":[-29.08647719990347,-5.518906457566863,-95.51711910171437,0,56.63930913109449,79.46723428563203,-21.83912397841966,0,77.11008775993375,-60.45246356562044,-19.98834696773717,0,407.6245422363281,590.38623046875,-100.54539489746094,1],"name":"Light"},{"children":[6],"matrix":[1,0,0,0,0,2.220446049250313e-16,1,0,0,-1,2.220446049250313e-16,0,0,0,0,1],"name":""},{"name":""},{"children":[8],"matrix":[-65.15583280329096,-44.52713576570858,-61.41703047373549,0,-32.40134137821245,89.53957451233616,-30.542088974418615,0,68.59205472129975,-0.000010718647115348782,-72.7676336239627,0,735.88916015625,495.8309326171875,692.5791015625,1],"name":"Camera"},{"name":""},{"children":[10,11],"matrix":[519.1031494140625,0,0,0,0,-0.00005254033802549507,-322.490295410152,0,0,322.490295410152,-0.00005254033802549507,0,0,0,0,1],"name":"Plane"},{"mesh":0,"name":"Plane_SInk_0"},{"mesh":1,"name":"Plane_Hole_0"},{"children":[13],"matrix":[36.001583099365234,0,0,0,0,-0.00000586540237773006,-36.00158309936476,0,0,36.00158309936476,-0.00000586540237773006,0,0.1524975597858429,191.25328063964844,259.1785888671875,1],"name":"Plane.001"},{"mesh":2,"name":"Plane.001_Steel_0"}],"scene":0,"scenes":[{"name":"OSG_Scene","nodes":[0]}]}